<svg width="528" height="525" viewBox="0 0 528 525" fill="none" xmlns="http://www.w3.org/2000/svg">
<path d="M143.912 441.632C143.912 446.944 143.304 451.776 142.088 456.128C140.872 460.416 139.016 464.128 136.52 467.264C134.024 470.4 130.792 472.8 126.824 474.464C122.92 476.128 118.28 476.96 112.904 476.96C107.592 476.96 102.984 476.128 99.08 474.464C95.176 472.736 91.944 470.336 89.384 467.264C86.888 464.128 85 460.384 83.72 456.032C82.504 451.68 81.896 446.848 81.896 441.536C81.896 434.432 82.984 428.256 85.16 423.008C87.4 417.76 90.824 413.696 95.432 410.816C100.04 407.872 105.896 406.4 113 406.4C120.168 406.4 126.024 407.872 130.568 410.816C135.112 413.696 138.472 417.792 140.648 423.104C142.824 428.352 143.912 434.528 143.912 441.632ZM98.216 441.632C98.216 446.432 98.696 450.56 99.656 454.016C100.68 457.472 102.28 460.128 104.456 461.984C106.632 463.84 109.448 464.768 112.904 464.768C116.424 464.768 119.24 463.84 121.352 461.984C123.528 460.128 125.096 457.472 126.056 454.016C127.08 450.56 127.592 446.432 127.592 441.632C127.592 434.4 126.44 428.736 124.136 424.64C121.896 420.544 118.184 418.496 113 418.496C109.48 418.496 106.632 419.424 104.456 421.28C102.28 423.136 100.68 425.792 99.656 429.248C98.696 432.704 98.216 436.832 98.216 441.632ZM195.658 422.816C195.658 425.952 195.018 428.672 193.738 430.976C192.458 433.28 190.762 435.168 188.65 436.64C186.538 438.112 184.17 439.2 181.546 439.904V440.192C186.666 440.832 190.602 442.496 193.354 445.184C196.106 447.872 197.482 451.488 197.482 456.032C197.482 460 196.554 463.584 194.698 466.784C192.842 469.92 189.962 472.416 186.058 474.272C182.218 476.064 177.226 476.96 171.082 476.96C167.242 476.96 163.818 476.64 160.81 476C157.802 475.36 154.922 474.432 152.17 473.216V460.928C154.986 462.4 157.866 463.52 160.81 464.288C163.818 465.056 166.57 465.44 169.066 465.44C173.61 465.44 176.746 464.544 178.474 462.752C180.266 460.96 181.162 458.432 181.162 455.168C181.162 453.248 180.746 451.648 179.914 450.368C179.082 449.024 177.61 448.032 175.498 447.392C173.45 446.688 170.474 446.336 166.57 446.336H162.154V435.2H166.666C170.314 435.2 173.13 434.816 175.114 434.048C177.098 433.216 178.474 432.128 179.242 430.784C180.074 429.376 180.49 427.776 180.49 425.984C180.49 423.552 179.818 421.664 178.474 420.32C177.13 418.912 175.082 418.208 172.33 418.208C170.346 418.208 168.49 418.496 166.762 419.072C165.034 419.584 163.498 420.224 162.154 420.992C160.874 421.76 159.818 422.496 158.986 423.2L152.266 413.216C153.994 411.936 155.882 410.784 157.93 409.76C160.042 408.736 162.41 407.936 165.034 407.36C167.722 406.784 170.762 406.496 174.154 406.496C180.81 406.496 186.058 407.936 189.898 410.816C193.738 413.632 195.658 417.632 195.658 422.816ZM253.363 407.456C259.315 407.456 264.211 408.032 268.051 409.184C271.891 410.272 274.739 412.096 276.595 414.656C278.451 417.152 279.379 420.544 279.379 424.832C279.379 427.392 278.931 429.728 278.035 431.84C277.139 433.952 275.923 435.68 274.387 437.024C272.915 438.368 271.251 439.232 269.395 439.616V440.096C271.315 440.544 273.139 441.344 274.867 442.496C276.659 443.648 278.099 445.312 279.187 447.488C280.275 449.664 280.819 452.544 280.819 456.128C280.819 460.288 279.827 463.872 277.843 466.88C275.923 469.824 273.171 472.096 269.587 473.696C266.003 475.232 261.715 476 256.723 476H232.147V407.456H253.363ZM254.227 434.624C257.683 434.624 260.083 433.952 261.427 432.608C262.771 431.264 263.443 429.312 263.443 426.752C263.443 424.128 262.643 422.24 261.043 421.088C259.507 419.936 257.075 419.36 253.747 419.36H247.699V434.624H254.227ZM247.699 446.144V464H255.187C258.771 464 261.267 463.168 262.675 461.504C264.083 459.776 264.787 457.504 264.787 454.688C264.787 452.96 264.467 451.456 263.827 450.176C263.251 448.896 262.227 447.904 260.755 447.2C259.347 446.496 257.363 446.144 254.803 446.144H247.699ZM314.113 422.528C320.577 422.528 325.569 424.064 329.089 427.136C332.673 430.144 334.465 434.784 334.465 441.056V476H323.809L320.833 468.896H320.449C319.041 470.752 317.601 472.288 316.129 473.504C314.657 474.72 312.961 475.584 311.041 476.096C309.121 476.672 306.785 476.96 304.033 476.96C301.153 476.96 298.561 476.384 296.257 475.232C294.017 474.016 292.225 472.192 290.881 469.76C289.537 467.264 288.865 464.128 288.865 460.352C288.865 454.784 290.689 450.688 294.337 448.064C298.049 445.376 303.489 443.904 310.656 443.648L319.105 443.36V441.056C319.105 438.304 318.497 436.288 317.281 435.008C316.065 433.728 314.401 433.088 312.289 433.088C310.113 433.088 307.841 433.472 305.473 434.24C303.105 434.944 300.737 435.84 298.369 436.928L293.665 427.232C296.481 425.76 299.585 424.608 302.977 423.776C306.433 422.944 310.145 422.528 314.113 422.528ZM314.689 451.904C310.913 452.032 308.257 452.864 306.721 454.4C305.249 455.936 304.513 457.952 304.513 460.448C304.513 462.624 305.025 464.192 306.049 465.152C307.137 466.048 308.545 466.496 310.273 466.496C312.705 466.496 314.785 465.6 316.513 463.808C318.305 461.952 319.201 459.36 319.201 456.032V451.712L314.689 451.904ZM376.815 422.624C382.063 422.624 386.287 424.16 389.487 427.232C392.751 430.24 394.383 435.104 394.383 441.824V476H379.023V445.376C379.023 441.6 378.447 438.784 377.295 436.928C376.207 435.008 374.447 434.048 372.015 434.048C368.303 434.048 365.807 435.552 364.527 438.56C363.247 441.504 362.607 445.76 362.607 451.328V476H347.247V423.584H358.863L360.975 430.304H361.647C362.735 428.512 364.015 427.072 365.487 425.984C367.023 424.832 368.751 424 370.671 423.488C372.591 422.912 374.639 422.624 376.815 422.624ZM422.513 435.68C422.513 437.664 422.417 439.648 422.225 441.632C422.097 443.552 421.905 445.504 421.649 447.488H421.937C422.257 446.592 422.705 445.696 423.281 444.8C423.921 443.904 424.593 443.008 425.297 442.112C426.065 441.216 426.801 440.352 427.505 439.52L440.081 423.584H457.265L438.737 446.336L458.321 476H440.753L428.177 454.784L422.513 459.68V476H407.153V403.04H422.513V435.68Z" fill="#444444"/>
<path d="M177 301.5C233.609 301.5 279.5 255.609 279.5 199C279.5 142.391 233.609 96.5 177 96.5C120.391 96.5 74.5 142.391 74.5 199C74.5 255.609 120.391 301.5 177 301.5Z" fill="#3F8F8B" stroke="#444444" stroke-width="5"/>
<path d="M277 251.5C333.609 251.5 379.5 205.609 379.5 149C379.5 92.3908 333.609 46.5 277 46.5C220.391 46.5 174.5 92.3908 174.5 149C174.5 205.609 220.391 251.5 277 251.5Z" fill="#3F8F8B" stroke="#444444" stroke-width="5"/>
<path d="M277 351.5C333.609 351.5 379.5 305.609 379.5 249C379.5 192.391 333.609 146.5 277 146.5C220.391 146.5 174.5 192.391 174.5 249C174.5 305.609 220.391 351.5 277 351.5Z" fill="#3F8F8B" stroke="#444444" stroke-width="5"/>
</svg>
